<?xml version="1.0" encoding="iso-8859-1"?>
<!-- Generator: Adobe Illustrator 21.0.2, SVG Export Plug-In . SVG Version: 6.00 Build 0)  -->
<svg version="1.1" id="Layer_1" xmlns="http://www.w3.org/2000/svg" xmlns:xlink="http://www.w3.org/1999/xlink" x="0px" y="0px"
	 viewBox="0 0 100.75 100.749" style="enable-background:new 0 0 100.75 100.749;" xml:space="preserve">
<g>
	<path d="M59.544,56.855c-6.121,0-11.101,4.98-11.101,11.102s4.98,11.101,11.101,11.101s11.101-4.979,11.101-11.101
		S65.665,56.855,59.544,56.855z M59.544,76.057c-4.467,0-8.101-3.634-8.101-8.101s3.634-8.102,8.101-8.102s8.101,3.635,8.101,8.102
		S64.011,76.057,59.544,76.057z"/>
	<path d="M69.566,36.225c-0.001,0-0.001,0-0.002,0c-0.446-0.025-0.894-0.041-1.346-0.041H18.247c-0.353,0-0.695,0.125-0.965,0.352
		L8.608,43.83c-0.46,0.387-0.625,0.99-0.48,1.535c-0.032,0.123-0.055,0.249-0.055,0.382v16.751c0,0.828,0.671,1.5,1.5,1.5h26.612
		c-0.233,1.336-0.351,2.662-0.351,3.959c0,13.073,10.636,23.709,23.709,23.709c7.36,0,13.947-3.371,18.299-8.65
		c0.087-0.052,0.18-0.088,0.258-0.159l7.557-6.909c0.034-0.031,0.066-0.063,0.097-0.098c3.98-4.372,6.172-10.038,6.172-15.955
		C91.927,47.273,82.014,36.927,69.566,36.225z M59.544,44.246h-5.983l5.056-5.062h7.334l-5.149,5.096
		C60.385,44.258,59.966,44.246,59.544,44.246z M18.794,39.184h35.583l-5.056,5.062H12.773L18.794,39.184z M59.544,88.665
		c-11.419,0-20.709-9.29-20.709-20.709c0-1.652,0.222-3.365,0.658-5.091c0.114-0.448,0.014-0.925-0.271-1.29
		c-0.284-0.364-0.721-0.578-1.184-0.578H11.072V47.246h48.471c11.419,0,20.709,9.29,20.709,20.71
		C80.254,79.375,70.964,88.665,59.544,88.665z M83.582,73.78l-1.424,1.302c0.711-2.25,1.096-4.644,1.096-7.126
		c0-11.353-8.023-20.864-18.697-23.172l5.562-5.505c10.531,0.964,18.809,9.835,18.809,20.614
		C88.927,65.039,87.03,69.968,83.582,73.78z"/>
	<path d="M63.755,30.166c0.829,0,1.5-0.672,1.5-1.5V9.406c0-0.828-0.671-1.5-1.5-1.5s-1.5,0.672-1.5,1.5v19.26
		C62.255,29.495,62.927,30.166,63.755,30.166z"/>
	<path d="M72.834,31.506c0.384,0,0.768-0.146,1.061-0.439l13.619-13.618c0.586-0.586,0.586-1.535,0-2.121s-1.535-0.586-2.121,0
		L71.774,28.946c-0.586,0.586-0.586,1.535,0,2.121C72.067,31.36,72.45,31.506,72.834,31.506z"/>
	<path d="M53.616,31.067c0.293,0.293,0.677,0.439,1.061,0.439s0.768-0.146,1.061-0.439c0.586-0.586,0.586-1.535,0-2.121
		L42.119,15.328c-0.586-0.586-1.535-0.586-2.121,0s-0.586,1.535,0,2.121L53.616,31.067z"/>
</g>
</svg>
