<svg width="32" height="32" xmlns="http://www.w3.org/2000/svg">

 <g>
  <title>background</title>
  <rect fill="none" id="canvas_background" height="402" width="582" y="-1" x="-1"/>
 </g>
 <g>
  <title>Layer 1</title>
  <path id="svg_1" d="m30,1l-28,0c-0.553,0 -1,0.448 -1,1l0,24c0,0.552 0.447,1 1,1l28,0c0.553,0 1,-0.448 1,-1l0,-24c0,-0.552 -0.447,-1 -1,-1zm-27,24l0,-5l3,0c0.553,0 1,-0.448 1,-1s-0.447,-1 -1,-1l-3,0l0,-3l1,0c0.553,0 1,-0.448 1,-1s-0.447,-1 -1,-1l-1,0l0,-3l3,0c0.553,0 1,-0.448 1,-1s-0.447,-1 -1,-1l-3,0l0,-5l26,0l0,5l-3,0c-0.553,0 -1,0.448 -1,1s0.447,1 1,1l3,0l0,3l-1,0c-0.553,0 -1,0.448 -1,1s0.447,1 1,1l1,0l0,3l-3,0c-0.553,0 -1,0.448 -1,1s0.447,1 1,1l3,0l0,5l-26,0z"/>
  <path id="svg_2" d="m16,5c-4.963,0 -9,4.038 -9,9s4.037,9 9,9s9,-4.038 9,-9s-4.037,-9 -9,-9zm0,16c-3.859,0 -7,-3.14 -7,-7s3.141,-7 7,-7s7,3.14 7,7s-3.141,7 -7,7z"/>
  <path id="svg_3" d="m16,11l2,0c0.553,0 1,-0.448 1,-1s-0.447,-1 -1,-1l-2,0c-2.757,0 -5,2.243 -5,5s2.243,5 5,5l2,0c0.553,0 1,-0.448 1,-1s-0.447,-1 -1,-1l-2,0c-1.654,0 -3,-1.346 -3,-3s1.346,-3 3,-3z"/>
 </g>
</svg>