<?xml version="1.0" ?><svg data-name="Layer 2" id="Layer_2" viewBox="0 0 64 64" xmlns="http://www.w3.org/2000/svg"><title/><path d="M32,23v2a1,1,0,0,0,2,0V23a1,1,0,0,0-2,0Z"/><path d="M63,30H58V1a1,1,0,0,0-2,0V16H50a4,4,0,0,0-4,4V30H41a1,1,0,0,0,0,2H62v7H60a1,1,0,0,0,0,2h2V54H53V41h3a1,1,0,0,0,0-2H52a1,1,0,0,0-1,1V55a1,1,0,0,0,1,1H62v6H2V56H12a1,1,0,0,0,1-1V40a1,1,0,0,0-1-1H2V32H37a1,1,0,0,0,0-2H19.364l5.368-17h6.79l-1.452,3.629A1,1,0,0,0,31,18H43a1,1,0,0,0,.958-.713l3-10A1,1,0,0,0,46,6H38.358l.618-2.783A1,1,0,0,0,38,2H33a1,1,0,0,0,0,2h3.753L35.2,11H25.247L26.8,4H29a1,1,0,0,0,0-2H26a1,1,0,0,0-.976.783l-1.99,8.957L18,27.679V20a4,4,0,0,0-4-4H8V1A1,1,0,0,0,6,1V30H1a1,1,0,0,0-1,1V63a1,1,0,0,0,1,1H63a1,1,0,0,0,1-1V31A1,1,0,0,0,63,30ZM48,20a2,2,0,0,1,2-2h6V30H48ZM36,13a1,1,0,0,0,.976-.783L37.913,8h6.743l-2.4,8H32.477l1.2-3ZM8,18h6a2,2,0,0,1,2,2V30H8Zm3,23V54H2V41Z"/><path d="M32,39a8,8,0,1,0,8,8A8.009,8.009,0,0,0,32,39Zm0,14a6,6,0,1,1,6-6A6.007,6.007,0,0,1,32,53Z"/><path d="M13,14a1,1,0,0,0,1-1V11a1,1,0,0,0-2,0v2A1,1,0,0,0,13,14Z"/><path d="M51,14a1,1,0,0,0,1-1V11a1,1,0,0,0-2,0v2A1,1,0,0,0,51,14Z"/><path d="M47,60a1,1,0,0,0,0-2H46a1,1,0,0,0,0,2Z"/><path d="M51,60a1,1,0,0,0,0-2H50a1,1,0,0,0,0,2Z"/></svg>