<?xml version="1.0" ?><svg viewBox="0 0 96 96" xmlns="http://www.w3.org/2000/svg"><defs><style>.cls-1{fill:#464965;}</style></defs><title/><g id="Ambulance"><path class="cls-1" d="M2.94,47.92a1.51,1.51,0,0,1,0-2.13,1,1,0,0,1,.23-.18,1.3,1.3,0,0,1,.26-.14,1.31,1.31,0,0,1,.28-.09,1.88,1.88,0,0,1,.58,0,1.31,1.31,0,0,1,.28.09,1.3,1.3,0,0,1,.26.14,1.3,1.3,0,0,1,.23.18,1.47,1.47,0,0,1,.32,1.64,1.26,1.26,0,0,1-.13.26,2.11,2.11,0,0,1-.19.23,2,2,0,0,1-.23.18,1.3,1.3,0,0,1-.26.14,1.31,1.31,0,0,1-.28.09,1.37,1.37,0,0,1-.29,0,1.37,1.37,0,0,1-.29,0,1.31,1.31,0,0,1-.28-.09,1.3,1.3,0,0,1-.26-.14A1.41,1.41,0,0,1,2.94,47.92ZM93.5,53.65V76.31a1.5,1.5,0,0,1-1.5,1.5H82.3a7.83,7.83,0,1,1,0-3h8.2v-9H80a1.5,1.5,0,0,1-1.5-1.5V58.06a1.5,1.5,0,0,1,1.5-1.5H90.5V54.62L77.63,48.88H58.46a1.5,1.5,0,0,1-1.5-1.5V36.1a1.5,1.5,0,0,1,3,0v9.78H75.31L67.65,33H49.5V74.81H63.09a1.5,1.5,0,0,1,0,3H31.83a1.5,1.5,0,0,1,0-3H46.5v-9H5.5v9h7.65a7.84,7.84,0,1,1,0,3H4a1.5,1.5,0,0,1-1.5-1.5V52.4a1.5,1.5,0,0,1,3,0v4.16h41V33H5.5v8.33a1.5,1.5,0,0,1-3,0V31.48A1.5,1.5,0,0,1,4,30H31.68a8.49,8.49,0,0,1,17,0H68.5a1.51,1.51,0,0,1,1.29.73L79,46.21l13.62,6.07A1.49,1.49,0,0,1,93.5,53.65ZM16,76.31a4.84,4.84,0,1,0,4.83-4.83A4.84,4.84,0,0,0,16,76.31ZM34.68,30h11a5.49,5.49,0,0,0-11,0ZM46.5,62.85V59.56H5.5v3.29Zm33,13.46a4.84,4.84,0,1,0-4.84,4.84A4.84,4.84,0,0,0,79.45,76.31Zm11-13.46V59.56h-9v3.29ZM74.61,74a2.31,2.31,0,1,0,2.31,2.3A2.3,2.3,0,0,0,74.61,74ZM20.83,78.62a2.31,2.31,0,1,0-2.3-2.31A2.3,2.3,0,0,0,20.83,78.62Zm9-40.5v2.35h2.36a1.5,1.5,0,0,1,1.5,1.5v5.64a1.5,1.5,0,0,1-1.5,1.5H29.83v2.35a1.5,1.5,0,0,1-1.5,1.5H22.7a1.5,1.5,0,0,1-1.5-1.5V49.11H18.84a1.5,1.5,0,0,1-1.5-1.5V42a1.5,1.5,0,0,1,1.5-1.5H21.2V38.12a1.5,1.5,0,0,1,1.5-1.5h5.63A1.5,1.5,0,0,1,29.83,38.12Zm-1.5,5.35a1.5,1.5,0,0,1-1.5-1.5V39.62H24.2V42a1.5,1.5,0,0,1-1.5,1.5H20.34v2.64H22.7a1.5,1.5,0,0,1,1.5,1.5V50h2.63V47.61a1.5,1.5,0,0,1,1.5-1.5h2.36V43.47ZM59.58,60.15a1.5,1.5,0,0,0,1.5-1.5V55.48a1.5,1.5,0,0,0-1.5-1.5h-5.2a1.5,1.5,0,0,0,0,3h3.7v1.67A1.5,1.5,0,0,0,59.58,60.15ZM40.65,18.85a1.5,1.5,0,0,0,1.5-1.5v-4a1.5,1.5,0,0,0-3,0v4A1.5,1.5,0,0,0,40.65,18.85Zm8.9,4.26a1.51,1.51,0,0,0,1.06-.44l2.83-2.83a1.5,1.5,0,0,0-2.12-2.12l-2.83,2.83a1.5,1.5,0,0,0,1.06,2.56ZM30.4,22a1.51,1.51,0,0,0,2.13,0,1.51,1.51,0,0,0,0-2.12L29.7,17a1.51,1.51,0,0,0-2.12,0,1.49,1.49,0,0,0,0,2.12Z"/></g></svg>