<svg width="48" height="48" xmlns="http://www.w3.org/2000/svg">

 <g>
  <title>background</title>
  <rect fill="#ffffff" id="canvas_background" height="50" width="50" y="-1" x="-1"/>
 </g>
 <g>
  <title>Layer 1</title>
  <path id="svg_3" d="m34.271,30.679c-0.188,-0.201 -0.286,-0.476 -0.27,-0.751c0.006,-0.088 0.502,-8.926 -3.305,-12.973c-0.056,-0.061 -0.112,-0.116 -0.17,-0.173c1.966,4.859 1.496,12.872 1.471,13.274c-0.032,0.528 -0.469,0.944 -0.997,0.944l-0.865,0l2.865,3.438l2.865,-3.438l-0.865,0c-0.275,0 -0.539,-0.12 -0.729,-0.321z"/>
  <path fill="none" stroke="#000" id="svg_4" d="m24.437306,2.437306c-12.15,0 -22,9.85 -22,22s9.85,22 22,22s22,-9.85 22,-22s-9.85,-22 -22,-22zm-1.98,33c-0.005,0 -0.012,0 -0.02,0c-2.466,0 -4.537,-0.875 -6.157,-2.6c-3.582,-3.812 -3.894,-10.4 -3.872,-13.4l-1.971,0c-0.388,0 -0.741,-0.23 -0.905,-0.582c-0.165,-0.352 -0.111,-0.77 0.137,-1.068l5,-6c0.381,-0.455 1.156,-0.455 1.537,0l5,6.001c0.248,0.299 0.302,0.716 0.137,1.067c-0.165,0.352 -0.518,0.582 -0.906,0.582l-2.045,0c-0.115,4 0.139,10.813 2.427,13.248c0.482,0.512 0.996,0.752 1.618,0.752c0.004,0 0.008,0 0.01,0l0.01,0c0.553,0 1,0.447 1,1s-0.448,1 -1,1zm16.749,-4.367l-5,5.998c-0.19,0.227 -0.472,0.359 -0.769,0.359s-0.578,-0.133 -0.769,-0.359l-5,-5.999c-0.248,-0.299 -0.302,-0.712 -0.137,-1.062c0.165,-0.351 0.518,-0.57 0.906,-0.57l2.045,0c0.115,-4 -0.139,-10.819 -2.427,-13.253c-0.482,-0.514 -0.996,-0.757 -1.618,-0.757c-0.553,0 -1,-0.447 -1,-1s0.447,-0.999 1,-0.999c2.466,0 4.537,0.876 6.157,2.601c3.582,3.812 3.894,10.408 3.872,13.408l1.971,0c0.388,0 0.741,0.219 0.905,0.57c0.165,0.35 0.112,0.764 -0.136,1.063z"/>
  <polyline stroke-linecap="round" id="svg_5" points="15.559987161599032,11.863655114107624 15.559987161599032,11.863655114107624 15.647448434535832,11.863655114107624 " fill-opacity="null" stroke-opacity="null" stroke-width="null" stroke="null" fill="none"/>
  <rect id="svg_6" height="0.087461" width="0.087461" y="24.458078" x="17.309213" fill-opacity="null" stroke-opacity="null" stroke-width="null" stroke="null" fill="null"/>
  <path id="svg_8" d="m63.751149,33.204206l-0.254265,-0.756074c0.079342,0.056383 -0.008119,1.368302 0.079342,1.368302" opacity="0.5" stroke-width="null" stroke="#000" fill="none"/>
  <path transform="rotate(179.6876983642578 15.507745742797853,23.161083221435547) " id="svg_9" d="m16.778745,28.230084c-0.188,-0.201 -0.286,-0.476 -0.27,-0.751c0.006,-0.088 0.502,-8.926 -3.305,-12.973c-0.056,-0.061 -0.112,-0.116 -0.17,-0.173c1.966,4.859 1.496,12.872 1.471,13.274c-0.032,0.528 -0.469,0.944 -0.997,0.944l-0.865,0l2.865,3.438l2.865,-3.438l-0.865,0c-0.275,0 -0.539,-0.12 -0.729,-0.321z"/>
 </g>
</svg>